<svg width="342" height="91" viewBox="0 0 342 91" fill="none" xmlns="http://www.w3.org/2000/svg">
<g clip-path="url(#clip0_52_10015)">
<path fill-rule="evenodd" clip-rule="evenodd" d="M338.815 56.9531C336.861 54.9285 333.097 52.0669 329.224 49.6627C321.362 44.7816 317.858 44.6983 316.708 44.671C316.514 44.6657 316.328 44.6633 316.146 44.6633C312.819 44.6633 310.238 45.5719 308.473 47.3644C304.709 45.1686 301.524 43.7903 298.984 43.2528C301.871 36.6031 304.344 29.7259 306.612 22.9864C307.365 20.8836 308.12 18.7286 308.873 16.5093L308.901 16.4285L308.921 16.3578C310.141 12.4415 309.61 8.70154 307.425 5.82677C305.266 2.98572 301.768 1.35621 297.829 1.35621C294.005 1.35621 290.347 2.94138 287.911 5.62581C287.8 5.46059 287.68 5.2999 287.56 5.14486C285.47 2.45364 282.192 0.971678 278.332 0.971678C272.097 0.971678 265.185 4.82144 261.905 10.1215L261.83 10.2399C258.123 16.0903 254.295 22.125 250.471 28.1858C250.653 25.0665 250.85 21.6844 251.061 18.4095C251.434 13.2172 250.026 8.66645 247.091 5.59616C244.75 3.14053 241.592 1.78826 238.203 1.78826C232.373 1.78826 226.99 5.60768 223.45 12.2485C221.546 15.4417 219.658 18.8739 217.828 22.4573C216.232 21.2584 214.312 20.6281 212.238 20.6281C209.089 20.6281 205.955 22.0626 202.924 24.8894C200.391 27.2155 198.503 30.7627 196.875 34.9307C195.618 36.875 193.776 36.8788 193.702 34.6364C193.755 34.3638 193.809 34.0888 193.862 33.8083L193.876 33.7322C194.544 29.9364 193.711 26.4577 191.533 23.9381C189.589 21.6875 186.688 20.3968 183.571 20.3968C182.868 20.3968 182.156 20.4625 181.449 20.5906C181.469 19.855 181.46 19.1061 181.423 18.3443C181.393 17.0723 181.288 15.7764 181.108 14.468L181.075 14.2268L181.022 13.9882C180.3 10.6774 178.114 6.15743 171.807 3.42616C168.031 1.79075 163.24 0.99589 157.16 0.99589C156.356 0.99589 155.519 1.01015 154.691 1.03821C150.595 0.988877 146.423 0.914419 142.388 0.842447C138.287 0.769118 134.046 0.693531 129.836 0.643288L125.135 0.58738L123.613 4.92735C121.037 12.2673 118.958 18.3803 117.091 24.1001C116.97 24.0158 116.845 23.9361 116.721 23.854C110.394 19.3161 101.994 18.9486 94.4155 20.6596C92.9516 20.9903 91.3124 21.4633 89.6062 22.0698C87.2831 22.847 85.0343 23.8092 82.9679 24.9365C82.6967 25.0843 82.4322 25.2345 82.1706 25.3859C79.8055 26.194 77.4888 25.2494 79.5732 23.3375C80.4224 22.588 81.3014 21.8394 82.2021 21.088C83.1795 20.3133 84.1926 19.5345 85.2417 18.7481L85.4118 18.6206L85.5728 18.4826C89.1112 15.448 90.4168 10.6341 88.8212 6.50347C87.3426 2.67612 83.7385 0.298584 79.4153 0.298584C77.8101 0.298584 76.135 0.629247 74.4367 1.28106L74.1432 1.39377L73.8622 1.53386C72.9584 1.98402 72.0714 2.4403 71.1926 2.9004C64.8541 5.98861 59.0019 9.79876 53.4979 14.0767C52.1317 15.1117 50.7799 16.1786 49.4383 17.2838C49.5878 16.5964 49.7288 15.9077 49.86 15.226C50.9938 9.6453 49.3879 6.27966 47.8409 4.4385C46.1 2.36628 43.5244 1.17785 40.7746 1.17785C36.4843 1.17785 32.4443 3.91051 29.9765 8.47182C18.0123 28.606 9.16733 55.4081 2.093 78.9709L0 85.942L7.36168 87.0193C8.6886 87.2137 10.449 87.4366 12.2987 87.4366C13.8374 87.4366 15.2977 87.2786 16.6819 86.9612C23.1354 85.6503 27.1557 81.1824 29.6725 75.5831C29.9716 74.9938 30.2628 74.3841 30.5442 73.7497L30.7158 73.3622L30.8335 72.9558C30.9779 72.4575 31.1236 71.9828 31.2706 71.5245C32.8236 67.5651 34.4718 64.4251 36.8632 61.093C37.1976 60.6722 37.5443 60.2465 37.9054 59.809C39.5121 65.2943 40.7189 71.1008 41.8879 76.7259L41.9725 77.1323C42.4531 79.8632 44.1589 82.6518 46.6521 84.7825C49.3319 87.0728 52.5312 88.3342 55.6625 88.3348C57.126 88.3348 60.7632 87.9892 63.7206 84.879C66.7533 87.5451 71.1189 88.9512 76.3844 88.9512C80.6676 88.9512 85.3066 87.9764 89.1576 86.2711C90.8785 87.3443 92.7757 87.8883 94.8008 87.8883C94.9119 87.8883 95.0236 87.8863 95.1213 87.8832L101.58 87.8825L101.731 87.8752C105.114 87.7098 107.226 86.4303 108.465 85.2599C112.035 88.6764 116.994 88.6762 119.701 88.6762L119.807 88.6753C125.401 88.583 131.741 88.4782 137.886 88.4782H138.129L138.372 88.4602C145.862 87.9122 152.657 85.4122 158.579 81.0275C158.961 81.6681 159.381 82.282 159.832 82.8575C162.968 86.8593 167.576 89.0635 172.806 89.0635C175.329 89.0635 177.984 88.5468 180.699 87.5278C180.699 87.5278 187.771 90.1269 194.131 87.3187L200.5 88.3863C201.474 88.5501 202.444 88.6331 203.381 88.6331C209.01 88.6331 213.885 85.8039 218.28 79.9839C219.273 78.6702 220.275 77.1531 221.268 75.4597C221.536 79.8953 222.835 83.2976 225.143 85.5884C227.046 87.4765 229.575 88.5164 232.269 88.5164C237.33 88.5164 242.471 84.9254 247.135 78.1306L247.153 78.1064C247.339 77.8285 247.53 77.5473 247.717 77.2641C247.679 80.3688 248.827 82.428 249.895 83.6672C251.565 85.6073 253.971 86.676 256.667 86.6764C258.743 86.6762 260.868 86.0398 262.831 84.8327C264.679 86.4689 267.006 87.3314 269.583 87.3316C271.57 87.3316 273.338 86.8278 274.761 86.4218L274.786 86.4152C275.07 86.3339 275.354 86.2525 275.639 86.1781L276.065 86.0658L276.471 85.8989C277.053 85.6599 277.622 85.402 278.166 85.1303C279.485 87.578 282.028 89.0788 284.913 89.079C284.913 89.079 287.031 88.8862 288.126 88.5057L288.213 88.4749L288.288 88.4458C291.284 87.3121 295.379 85.344 298.728 83.6914C299.943 86.4414 302.626 88.1906 305.697 88.191C306.77 88.191 307.873 87.981 308.981 87.5675C312.375 86.3146 317.984 83.6565 325.637 79.6769C325.893 79.5586 326.177 79.4297 326.486 79.2903L326.57 79.2532C333.617 76.0722 340.596 72.4294 341.829 66.0043C342.449 62.7756 341.376 59.5602 338.815 56.9531Z" fill="white"/>
<path fill-rule="evenodd" clip-rule="evenodd" d="M271.917 68.0611C268.87 71.1349 265.619 75.696 266.736 79.6625C268.563 81.943 271.306 80.7532 273.949 80.0591C277.811 78.4724 280.758 75.8944 281.062 71.5315C282.687 67.8629 275.983 64.293 271.917 68.0611ZM201.598 82.1415C209.322 58.9387 216.943 35.7359 229.136 15.3095C235.029 4.10492 245.394 6.7821 244.583 17.9867C244.075 25.8202 243.666 33.7525 243.16 41.5861C242.958 46.0482 247.022 45.4534 249.154 42.3793C255.252 32.6621 261.35 23.0436 267.446 13.4256C271.712 6.48449 286.245 3.41079 282.79 15.4087C279.03 36.1325 272.121 55.7657 262.976 74.9027C260.942 80.7532 253.118 82.9347 254.339 76.0929C257.082 65.7803 259.927 55.3688 262.771 45.1557C264.295 38.9087 260.131 42.1811 256.269 49.4194C251.39 57.9472 247.732 65.7803 241.736 74.6056C234.521 85.1158 227.51 84.7194 227.714 73.2172C228.223 65.9788 228.831 58.7403 229.442 51.5018C230.153 43.5692 228.223 42.2804 224.869 50.8077C215.113 79.1667 208.102 83.2319 201.598 82.1415ZM135.548 49.2212C133.515 51.1051 131.991 56.3603 130.873 64.6897C130.873 67.4661 131.89 68.6559 133.82 68.9536C136.97 69.0526 141.035 69.2508 144.084 69.0526C158.412 68.5567 165.22 50.5101 151.4 49.4194C145.71 49.3204 141.238 49.3204 135.548 49.2212ZM146.726 19.97C144.388 19.97 142.051 28.0016 141.848 32.9593C141.34 36.9258 145.405 36.4297 148.351 36.5292C158.31 36.8264 162.781 33.5543 165.83 28.1008C168.268 22.548 166.846 19.8706 160.342 19.8706C155.769 19.8706 151.298 19.97 146.726 19.97ZM129.756 6.98037C138.088 7.07949 146.421 7.27776 154.753 7.37688C166.033 6.98037 173.349 9.26103 174.67 15.3095C176.398 27.9026 169.589 35.6365 160.342 41.9827C162.476 43.7674 164.204 45.7506 164.61 48.3288C165.423 51.2044 168.37 51.7002 170.402 46.6433C171.927 41.2885 174.06 36.0333 176.804 31.1746C181.276 24.4319 188.693 25.7208 187.473 32.6621C184.831 46.6433 180.666 49.3204 177.109 64.7887C175.483 70.4409 183.714 77.4809 192.249 65.1857C198.448 57.6496 201.09 35.2401 207.39 29.4889C212.267 24.9278 215.723 27.0101 215.215 32.067C205.968 65.4829 197.33 82.5379 188.897 81.8438C189.303 80.7532 189.811 79.3651 189.709 78.175C189.607 76.2911 188.693 76.0928 185.339 77.7786C170.097 88.5867 162.374 79.5633 162.374 70.9365C162.476 70.044 161.46 69.5482 160.342 70.7383C153.635 78.2742 146.014 81.5464 137.885 82.1415C131.788 82.1415 125.691 82.2405 119.696 82.3397C113.599 82.3397 110.55 81.3478 111.363 71.9282C114.31 52.6916 122.033 28.993 129.756 6.98037ZM98.0514 57.1538C96.0192 56.4597 90.9382 58.4428 87.5849 60.6244C81.6911 64.9873 82.0975 67.2676 82.9108 70.2424C84.2315 73.4157 90.8365 72.6222 95.7143 67.5653C100.389 62.2109 100.795 58.3436 98.0514 57.1538ZM88.8045 42.2804C92.056 38.7105 95.6125 36.4299 100.389 38.6113C104.453 40.297 102.421 46.544 98.2546 48.2298C88.3979 50.0145 80.8781 51.3036 74.7812 55.3688C64.3149 63.2024 64.5179 69.2508 66.0422 76.6877C67.9729 85.4135 84.5364 83.2319 90.125 78.2742C91.4461 80.2575 92.9705 81.6454 95.0029 81.5464C97.1369 81.5464 99.2706 81.5464 101.405 81.5464C103.437 81.4472 104.656 80.654 104.555 78.9682C104.352 62.4091 122.338 38.8099 114.513 30.1831C103.234 20.3665 79.1508 30.8769 78.6429 38.4131C77.6265 42.3793 87.4834 45.1557 88.8045 42.2804ZM8.32404 80.7532C15.9453 55.3688 24.3795 30.4805 35.659 11.5417C38.809 5.59209 45.1094 6.08797 43.4833 14.0206C42.569 18.78 41.2479 23.3413 39.6218 27.8034C38.6058 31.1746 41.2479 33.4554 45.9222 28.993C57.1 18.2843 67.0584 12.0373 76.8134 7.17862C83.0121 4.79883 84.6379 10.8473 81.2847 13.723C67.2616 24.2335 55.1693 36.0333 59.9455 57.6496C60.9615 63.8964 61.6728 70.044 60.9615 76.291C58.6244 86.7028 49.0723 80.5547 48.361 75.9934C46.9384 69.1518 45.516 62.2109 43.3818 55.5672C41.7558 50.3119 37.996 49.2212 33.7281 54.774C30.1715 59.0377 27.0213 62.8057 24.5827 71.2339C20.01 81.5464 14.421 81.6454 8.32404 80.7532ZM276.591 59.4343C276.389 62.905 279.436 63.9956 283.4 58.9387C290.716 46.3458 297.018 31.2738 302.708 14.5163C305.146 6.68298 294.577 5.69123 291.935 11.0458C286.549 20.3665 281.57 38.0164 276.591 59.4343Z" fill="#295CB3"/>
<path fill-rule="evenodd" clip-rule="evenodd" d="M220.492 56.4595C217.952 56.5587 215.31 56.5587 212.669 56.5587C217.646 42.6768 223.439 28.9928 230.959 16.3009H231.061C232.076 14.3179 233.602 12.2355 235.634 11.0457C236.751 10.4507 238.072 10.0542 239.291 10.5498C242.136 11.4422 242.542 15.4085 242.442 17.8875C241.934 25.7208 241.423 33.5544 240.917 41.4867C240.917 43.569 241.525 45.7504 243.659 46.6431C246.404 47.8327 249.453 45.7504 250.977 43.4703C257.075 33.8518 263.171 24.2333 269.369 14.6153V14.5161C270.08 13.3264 271.299 12.2355 272.521 11.4422C273.842 10.5498 275.568 9.85568 277.295 9.55829C278.21 9.45916 279.532 9.36004 280.342 9.95483C281.666 10.9466 281.055 13.6237 280.751 14.8135L280.649 14.9127V15.012C278.515 26.8117 275.366 38.2147 271.299 49.4195C268.659 50.2127 266.016 50.9068 263.273 51.6008L264.899 45.6516V45.5522C265.305 43.7675 265.812 40.8919 263.575 39.9004C262.461 39.4046 261.344 39.7022 260.324 40.396C259.616 40.8919 258.903 41.5861 258.394 42.2802C256.769 44.0649 255.45 46.2462 254.33 48.428C253.313 50.2127 252.298 52.0966 251.281 53.8816C244.779 54.873 238.072 55.6661 231.263 56.0631L231.57 51.7C231.772 50.0143 231.874 48.2296 231.669 46.5439C231.467 45.0566 230.857 43.2716 229.129 42.875C227.401 42.4782 226.082 43.7675 225.167 45.0566C224.252 46.5439 223.439 48.428 222.829 50.1135V50.2127C222.118 52.2951 221.306 54.3772 220.492 56.4595ZM139.605 32.7609C139.707 30.9762 140.012 29.0923 140.418 27.4063C141.028 24.531 142.857 17.8875 146.719 17.8875C151.291 17.7883 155.762 17.7884 160.234 17.6892H160.335C168.261 17.6892 171.005 21.8538 167.855 28.8941L167.753 28.9928V29.0923C166.839 30.778 165.619 32.3643 164.197 33.7526C159.929 37.9171 154.137 38.9087 148.243 38.7103C147.633 38.6113 147.023 38.6113 146.414 38.6113C144.483 38.6113 142.552 38.4129 141.028 37.124C139.809 35.9342 139.504 34.3476 139.605 32.7609ZM205.249 56.3603C205.555 55.3686 205.961 54.3772 206.367 53.3857C208.909 46.2462 211.043 39.008 213.074 31.7695C213.074 31.0754 213.074 29.4889 212.464 29.1913C212.26 28.9928 211.854 29.1913 211.652 29.1913C210.634 29.5881 209.618 30.3812 208.909 31.0754H208.807C207.181 32.5627 205.859 35.7357 205.047 37.7189C203.623 41.2885 202.607 44.9574 201.489 48.626C200.677 51.105 199.965 53.6831 199.051 56.1619C201.083 56.2613 203.115 56.3603 205.249 56.3603ZM177.61 54.774C177.813 54.4764 177.915 54.179 178.017 53.8816C178.931 51.3034 180.049 48.8244 181.065 46.2462C181.879 44.2633 182.691 42.181 183.403 40.0986C184.214 37.5204 184.824 34.9425 185.332 32.2653C185.434 31.3728 185.536 29.6871 184.521 29.0923C183.911 28.6957 182.895 28.8941 182.183 29.1913C180.761 29.6871 179.541 30.9762 178.626 32.2653C175.984 36.9256 173.85 41.9825 172.529 47.1389V47.3371L172.428 47.4361C171.412 49.9153 169.176 53.2865 165.924 52.4933C164.095 52.0966 162.977 50.6093 162.571 48.9236L162.469 48.8244V48.7252C162.063 46.5439 160.64 44.9574 158.913 43.569L156.677 41.7841L159.116 40.1978C168.16 34.0502 174.053 27.0099 172.529 15.6068C171.005 9.36004 159.726 9.36004 154.746 9.55829H154.645C146.922 9.45916 139.097 9.36004 131.374 9.16155C129.749 13.9211 128.123 18.5816 126.497 23.2419C123.753 31.5713 121.111 39.9996 118.876 48.428C123.245 48.9236 127.818 49.5185 132.289 50.0143C132.797 49.122 133.407 48.2296 134.017 47.6345L134.626 47.0395H135.541C140.825 47.1389 146.109 47.2381 151.393 47.3371H151.596C155.153 47.6345 158.709 49.0228 160.335 52.4933C160.437 52.6915 160.538 52.9889 160.64 53.2865C166.331 53.8816 172.021 54.3772 177.61 54.774ZM111.559 47.6345C108.714 47.3371 105.97 47.0395 103.227 46.7421C104.751 44.5607 105.361 41.6851 104.141 39.3054C103.532 38.0163 102.516 37.124 101.296 36.6282C95.504 34.0502 91.0329 36.6282 87.1714 40.7927L86.9682 41.0901L86.8665 41.1893C86.1551 41.4867 84.2246 41.0901 83.5131 40.8919C82.9037 40.6937 80.8712 39.801 80.7695 39.008L80.8712 38.8098V38.6113C80.973 36.6282 84.0212 34.3476 85.5455 33.356C88.8987 31.1744 93.1666 29.5881 97.1298 28.7946C101.499 28.0014 106.478 28.0014 110.543 30.0837C111.356 30.4804 112.169 31.0754 112.982 31.6705C113.084 31.8684 113.287 32.0669 113.389 32.2653C115.116 35.0417 113.998 39.801 113.185 42.6768C112.677 44.3623 112.169 45.9488 111.559 47.6345ZM56.8897 44.9574C57.2961 39.801 58.922 34.7443 61.9706 29.9845C66.3398 22.7463 73.148 17.0942 79.9567 12.0372C80.5661 11.4422 81.1759 10.0542 80.5661 9.26092C79.9567 8.36852 78.4324 8.86416 77.7211 9.16155C72.6402 11.7398 67.7629 14.5161 63.1898 17.6892C57.4993 21.457 52.3169 25.8201 47.4394 30.5798C46.22 31.7695 44.6956 32.8601 43.0698 33.356C41.5455 33.8518 39.9199 33.6534 38.7004 32.6619C37.0744 31.3728 36.8712 29.0923 37.481 27.2084V27.0099C39.1066 22.647 40.4278 18.1848 41.3423 13.6237C41.5455 12.632 41.7487 11.3431 41.444 10.3516C41.3423 10.1531 41.1391 9.85568 40.9359 9.75656C40.6312 9.65743 40.1231 9.85568 39.8181 10.0542C38.9034 10.5498 38.0906 11.5416 37.5827 12.5329C31.5871 22.647 26.8113 33.5544 22.6449 44.4617C21.4254 47.8327 20.2061 51.2042 18.9868 54.5756C28.945 48.527 41.9521 45.7504 56.8897 44.9574ZM289.39 42.5776C293.656 33.1575 297.313 23.4403 300.565 13.822C300.971 12.8305 301.073 11.4422 300.161 10.649C299.346 9.85568 297.924 9.75656 296.907 9.95483C295.688 10.1531 294.469 10.8472 293.858 12.0372V12.1364C292.335 14.7144 291.118 17.5901 289.998 20.3664C288.575 23.9361 287.356 27.605 286.238 31.3728C284.815 36.1324 283.496 40.8919 282.172 45.6516C284.613 44.7592 287.051 43.6683 289.39 42.5776Z" fill="#2175C5"/>
<path fill-rule="evenodd" clip-rule="evenodd" d="M315.613 60.4258C321.609 66.5736 307.891 72.0274 303.318 74.3077C299.963 75.8944 290.92 80.654 285.941 82.5379C284.52 83.0335 283.705 82.6369 283.705 81.249C283.298 72.1266 307.891 68.4577 303.825 64.392C302.404 62.3097 284.722 49.0228 296.61 49.3202C301.184 49.5186 312.361 57.0546 315.613 60.4258ZM334.107 61.3182C331.06 58.1454 320.694 51.1052 316.528 51.0059C305.553 50.7083 321.915 63.0037 323.234 64.8879C326.892 68.6557 304.231 72.1266 304.538 80.5548C304.638 81.7449 305.35 82.1413 306.672 81.6454C311.242 79.9597 319.679 75.597 322.726 74.0105C326.994 72.0274 339.697 66.9702 334.107 61.3182Z" fill="#F15122"/>
<path fill-rule="evenodd" clip-rule="evenodd" d="M294.173 51.3031C294.173 51.7987 294.984 52.9886 295.29 53.2863C296.203 54.6741 297.527 55.9634 298.644 57.1533C299.963 58.4422 301.287 59.6321 302.708 60.9212C303.421 61.5162 304.538 62.5077 305.148 63.4001C305.655 63.896 305.959 64.59 305.959 65.2841C305.959 65.3835 305.959 65.3835 305.959 65.4825C306.57 65.2841 307.078 65.1851 307.687 65.0859C310.329 64.491 312.868 63.9952 315.411 63.5983C315.411 62.8053 314.902 62.1113 314.396 61.6154C311.549 58.6406 300.574 51.1047 296.61 51.0055C296.203 51.0055 294.68 51.0055 294.173 51.3031Z" fill="#F47126"/>
<path fill-rule="evenodd" clip-rule="evenodd" d="M314.489 52.8899C314.591 54.0798 317.74 57.3518 318.555 58.1452C319.774 59.3349 320.994 60.4256 322.213 61.6157C322.517 61.9131 322.926 62.2107 323.432 62.6071C326.686 62.4089 329.835 62.3095 332.779 62.3095C330.039 59.6323 320.181 52.7907 316.521 52.6914C316.115 52.5922 314.898 52.6914 314.489 52.8899Z" fill="#F47126"/>
</g>
<defs>
<clipPath id="clip0_52_10015">
<rect width="342" height="91" fill="white"/>
</clipPath>
</defs>
</svg>
