<svg width="212" height="56" viewBox="0 0 212 56" fill="none" xmlns="http://www.w3.org/2000/svg">
<g clip-path="url(#clip0_56_14902)">
<path fill-rule="evenodd" clip-rule="evenodd" d="M210.026 35.0481C208.814 33.8021 206.481 32.0411 204.08 30.5616C199.207 27.5579 197.035 27.5066 196.322 27.4898C196.202 27.4866 196.086 27.4851 195.973 27.4851C193.911 27.4851 192.312 28.0442 191.217 29.1473C188.884 27.7961 186.91 26.9479 185.335 26.6171C187.124 22.525 188.658 18.2929 190.063 14.1454C190.53 12.8514 190.998 11.5253 191.465 10.1595L191.483 10.1098L191.495 10.0663C192.251 7.6563 191.922 5.35477 190.567 3.58567C189.229 1.83734 187.061 0.83456 184.619 0.83456C182.248 0.83456 179.981 1.81005 178.471 3.46201C178.402 3.36033 178.328 3.26145 178.253 3.16604C176.958 1.5099 174.926 0.597927 172.534 0.597927C168.668 0.597927 164.384 2.96701 162.351 6.22859L162.304 6.30143C160.006 9.90171 157.633 13.6154 155.262 17.3451C155.375 15.4255 155.498 13.3442 155.629 11.3289C155.86 8.13361 154.987 5.33317 153.167 3.44376C151.716 1.93261 149.759 1.10044 147.658 1.10044C144.044 1.10044 140.707 3.45085 138.513 7.5375C137.332 9.50255 136.162 11.6147 135.028 13.8198C134.039 13.0821 132.848 12.6942 131.563 12.6942C129.61 12.6942 127.668 13.5769 125.789 15.3165C124.219 16.7479 123.049 18.9308 122.039 21.4958C121.26 22.6923 120.119 22.6946 120.073 21.3147C120.106 21.1469 120.139 20.9777 120.172 20.8051L120.18 20.7582C120.594 18.4223 120.078 16.2816 118.728 14.7311C117.523 13.3461 115.725 12.5519 113.792 12.5519C113.357 12.5519 112.915 12.5922 112.477 12.6711C112.49 12.2184 112.484 11.7576 112.461 11.2888C112.442 10.506 112.378 9.70854 112.266 8.90338L112.245 8.75491L112.212 8.60812C111.765 6.57065 110.41 3.78916 106.5 2.10838C104.16 1.10197 101.19 0.612827 97.4209 0.612827C96.9227 0.612827 96.4034 0.621603 95.8906 0.638873C93.3512 0.608511 90.7652 0.562691 88.2641 0.518401C85.7218 0.473275 83.0927 0.42676 80.483 0.395841L77.5693 0.361437L76.6253 3.03219C75.029 7.54905 73.7401 11.3109 72.583 14.8308C72.5078 14.7789 72.4299 14.7299 72.3534 14.6794C68.4314 11.8868 63.2246 11.6606 58.5266 12.7136C57.6191 12.917 56.603 13.2081 55.5454 13.5814C54.1053 14.0597 52.7113 14.6518 51.4304 15.3455C51.2623 15.4364 51.0983 15.5289 50.9362 15.6221C49.4701 16.1194 48.034 15.5381 49.3261 14.3615C49.8525 13.9003 50.3974 13.4396 50.9557 12.9772C51.5616 12.5005 52.1896 12.0212 52.8399 11.5372L52.9453 11.4588L53.0451 11.3739C55.2385 9.50644 56.0478 6.54404 55.0587 4.00211C54.1422 1.64682 51.9081 0.183716 49.2282 0.183716C48.2332 0.183716 47.1948 0.387201 46.1421 0.788316L45.9601 0.857676L45.7859 0.943887C45.2257 1.22091 44.6758 1.50169 44.1311 1.78484C40.2019 3.68527 36.5743 6.02998 33.1624 8.66258C32.3155 9.29949 31.4776 9.95604 30.646 10.6361C30.7386 10.2131 30.826 9.78931 30.9074 9.36982C31.6102 5.93554 30.6147 3.86438 29.6558 2.73136C28.5766 1.45614 26.98 0.724806 25.2755 0.724806C22.616 0.724806 20.1116 2.40644 18.5819 5.2134C11.1655 17.6036 5.68267 34.0973 1.29742 48.5975L0 52.8873L4.56338 53.5503C5.38591 53.67 6.47716 53.8071 7.62377 53.8071C8.57756 53.8071 9.48276 53.7099 10.3408 53.5145C14.3412 52.7079 16.8334 49.9584 18.3935 46.5126C18.5789 46.15 18.7594 45.7748 18.9338 45.3844L19.0402 45.1459L19.1132 44.8959C19.2027 44.5892 19.293 44.2971 19.3841 44.015C20.3468 41.5785 21.3685 39.6462 22.8508 37.5956C23.0582 37.3367 23.2731 37.0747 23.4969 36.8055C24.4929 40.1811 25.2409 43.7543 25.9656 47.2159L26.018 47.466C26.3159 49.1465 27.3733 50.8626 28.9189 52.1738C30.58 53.5832 32.5632 54.3595 34.5042 54.3599C35.4114 54.3599 37.6661 54.1472 39.4993 52.2332C41.3792 53.8739 44.0854 54.7392 47.3494 54.7392C50.0045 54.7392 52.8801 54.1393 55.2673 53.0899C56.334 53.7503 57.5101 54.0851 58.7654 54.0851C58.8343 54.0851 58.9035 54.0838 58.9641 54.0819L62.9676 54.0815L63.061 54.077C65.1585 53.9752 66.4676 53.1878 67.2357 52.4676C69.4484 54.5701 72.5224 54.5699 74.2007 54.5699L74.2662 54.5694C77.7338 54.5126 81.6639 54.4481 85.4733 54.4481H85.624L85.7745 54.437C90.4172 54.0998 94.6296 52.5613 98.3007 49.8631C98.5373 50.2572 98.7978 50.635 99.0772 50.9892C101.021 53.4518 103.877 54.8083 107.119 54.8083C108.683 54.8083 110.329 54.4903 112.013 53.8632C112.013 53.8632 116.396 55.4627 120.338 53.7346L124.287 54.3915C124.89 54.4923 125.491 54.5434 126.072 54.5434C129.562 54.5434 132.584 52.8024 135.308 49.2208C135.924 48.4124 136.545 47.4788 137.16 46.4367C137.327 49.1663 138.132 51.2601 139.562 52.6698C140.742 53.8317 142.31 54.4716 143.98 54.4716C147.117 54.4716 150.304 52.2618 153.195 48.0803L153.206 48.0655C153.321 47.8945 153.44 47.7214 153.555 47.5471C153.532 49.4577 154.244 50.7249 154.906 51.4875C155.941 52.6814 157.432 53.339 159.103 53.3393C160.39 53.3392 161.708 52.9476 162.925 52.2047C164.07 53.2116 165.513 53.7424 167.11 53.7425C168.342 53.7425 169.438 53.4325 170.32 53.1826L170.335 53.1785C170.511 53.1285 170.688 53.0784 170.864 53.0327L171.128 52.9636L171.38 52.8608C171.741 52.7137 172.093 52.555 172.43 52.3878C173.248 53.8941 174.824 54.8177 176.613 54.8178C176.613 54.8178 177.926 54.6991 178.604 54.465L178.658 54.446L178.705 54.4282C180.562 53.7305 183.101 52.5194 185.176 51.5024C185.929 53.1947 187.592 54.2711 189.496 54.2714C190.161 54.2714 190.845 54.1421 191.532 53.8877C193.636 53.1167 197.113 51.4809 201.857 49.0319C202.015 48.9591 202.192 48.8798 202.383 48.794L202.435 48.7712C206.803 46.8137 211.13 44.5719 211.894 40.618C212.278 38.6311 211.613 36.6524 210.026 35.0481Z" fill="white"/>
<path fill-rule="evenodd" clip-rule="evenodd" d="M168.557 41.8838C166.668 43.7753 164.653 46.5822 165.345 49.0231C166.478 50.4265 168.178 49.6943 169.816 49.2672C172.21 48.2907 174.037 46.7043 174.226 44.0194C175.233 41.7618 171.077 39.565 168.557 41.8838ZM124.967 50.5486C129.755 36.27 134.48 21.9913 142.037 9.42127C145.691 2.52613 152.116 4.17362 151.613 11.0688C151.298 15.8894 151.045 20.7708 150.731 25.5915C150.606 28.3374 153.125 27.9713 154.446 26.0796C158.227 20.0998 162.007 14.1807 165.786 8.26193C168.43 3.99047 177.439 2.09897 175.297 9.48227C172.966 22.2354 168.683 34.3174 163.014 46.094C161.753 49.6943 156.904 51.0368 157.661 46.8264C159.361 40.4802 161.124 34.0731 162.888 27.7882C163.832 23.9438 161.251 25.9576 158.857 30.412C155.833 35.6599 153.565 40.4802 149.848 45.9111C145.376 52.379 141.03 52.1351 141.156 45.0568C141.472 40.6023 141.849 36.1479 142.227 31.6934C142.668 26.8119 141.472 26.0187 139.393 31.2663C133.345 48.718 128.999 51.2197 124.967 50.5486ZM84.0239 30.29C82.7642 31.4493 81.8193 34.6833 81.1264 39.809C81.1264 41.5176 81.7564 42.2498 82.9531 42.433C84.9058 42.4939 87.4254 42.6159 89.3153 42.4939C98.197 42.1888 102.417 31.0831 93.8504 30.412C90.3231 30.3511 87.5514 30.3511 84.0239 30.29ZM90.9531 12.2892C89.5042 12.2892 88.0554 17.2318 87.9294 20.2827C87.6145 22.7236 90.1341 22.4183 91.9607 22.4795C98.1339 22.6624 100.905 20.6488 102.795 17.2928C104.307 13.8757 103.425 12.2281 99.3937 12.2281C96.5591 12.2281 93.7875 12.2892 90.9531 12.2892ZM80.4336 4.29563C85.5987 4.35663 90.7639 4.47864 95.9291 4.53964C102.921 4.29563 107.456 5.69911 108.275 9.42127C109.346 17.1708 105.126 21.9302 99.3937 25.8355C100.716 26.9338 101.787 28.1542 102.039 29.7408C102.543 31.5104 104.37 31.8155 105.63 28.7036C106.575 25.4083 107.897 22.1744 109.598 19.1844C112.37 15.0351 116.968 15.8282 116.212 20.0998C114.574 28.7036 111.992 30.3511 109.787 39.87C108.779 43.3482 113.881 47.6806 119.172 40.1143C123.015 35.4767 124.653 21.6862 128.558 18.147C131.581 15.3402 133.723 16.6216 133.409 19.7336C127.676 40.2972 122.322 50.7926 117.094 50.3654C117.346 49.6943 117.661 48.8401 117.598 48.1077C117.534 46.9484 116.968 46.8264 114.889 47.8638C105.441 54.5149 100.653 48.962 100.653 43.6532C100.716 43.104 100.087 42.7989 99.3937 43.5313C95.2363 48.1687 90.5121 50.1824 85.4727 50.5486C81.6933 50.5486 77.9139 50.6095 74.1976 50.6706C70.4182 50.6706 68.5284 50.0602 69.0324 44.2635C70.8592 32.4256 75.6464 17.8419 80.4336 4.29563ZM60.7806 35.1716C59.5209 34.7445 56.3713 35.9648 54.2926 37.3073C50.6392 39.9922 50.8911 41.3955 51.3952 43.2261C52.2139 45.1789 56.3083 44.6906 59.3319 41.5786C62.2294 38.2837 62.4814 35.9038 60.7806 35.1716ZM55.0486 26.0187C57.0642 23.8219 59.2688 22.4184 62.2294 23.7608C64.749 24.7982 63.4891 28.6425 60.9066 29.6799C54.7966 30.7782 50.1352 31.5714 46.3558 34.0731C39.8679 38.8938 39.9938 42.6159 40.9387 47.1924C42.1355 52.5622 52.4029 51.2197 55.8672 48.1687C56.6861 49.3893 57.6311 50.2433 58.8909 50.1824C60.2137 50.1824 61.5364 50.1824 62.8593 50.1824C64.1192 50.1214 64.875 49.6332 64.8121 48.5959C64.686 38.4056 75.8354 23.8831 70.985 18.5743C63.9933 12.5333 49.0645 19.0012 48.7496 23.6388C48.1195 26.0796 54.2297 27.7882 55.0486 26.0187ZM5.16016 49.6943C9.88443 34.0731 15.1127 18.7573 22.1047 7.1026C24.0573 3.4413 27.9628 3.74646 26.9548 8.62809C26.388 11.5569 25.5691 14.3639 24.5611 17.1098C23.9313 19.1844 25.5691 20.5879 28.4666 17.8419C35.3956 11.2519 41.5686 7.40761 47.6156 4.41763C51.458 2.95315 52.4658 6.6753 50.3873 8.44494C41.6946 14.9129 34.1987 22.1744 37.1594 35.4767C37.7892 39.3209 38.2302 43.104 37.7892 46.9484C36.3405 53.3556 30.4193 49.5722 29.9784 46.7652C29.0965 42.555 28.2148 38.2837 26.8919 34.1952C25.8839 30.9612 23.5533 30.29 20.9077 33.7071C18.703 36.3309 16.7503 38.6497 15.2386 43.8363C12.4041 50.1824 8.93954 50.2433 5.16016 49.6943ZM171.455 36.575C171.329 38.7108 173.218 39.3819 175.675 36.27C180.21 28.5205 184.117 19.2454 187.644 8.9331C189.155 4.11262 182.604 3.50232 180.966 6.79745C177.627 12.5333 174.541 23.3948 171.455 36.575Z" fill="#295CB3"/>
<path fill-rule="evenodd" clip-rule="evenodd" d="M136.679 34.7443C135.105 34.8053 133.467 34.8053 131.83 34.8053C134.915 26.2626 138.506 17.8417 143.167 10.0313H143.231C143.86 8.81096 144.806 7.52949 146.065 6.79731C146.758 6.43115 147.577 6.18714 148.332 6.49217C150.096 7.04132 150.348 9.48214 150.286 11.0076C149.971 15.8282 149.654 20.6488 149.34 25.5302C149.34 26.8117 149.717 28.154 151.04 28.7034C152.742 29.4355 154.632 28.154 155.576 26.7509C159.356 20.8318 163.135 14.9128 166.977 8.99397V8.93297C167.418 8.2008 168.174 7.52949 168.931 7.04132C169.75 6.49217 170.82 6.065 171.891 5.88199C172.458 5.82099 173.277 5.75999 173.779 6.12601C174.6 6.73631 174.221 8.38381 174.033 9.11599L173.969 9.17698V9.23813C172.646 16.4995 170.694 23.5167 168.174 30.4119C166.537 30.9001 164.899 31.3272 163.199 31.7543L164.206 28.0933V28.0321C164.458 26.9338 164.772 25.1642 163.386 24.5541C162.695 24.2489 162.002 24.4321 161.37 24.8591C160.931 25.1642 160.489 25.5914 160.174 26.0185C159.166 27.1168 158.349 28.4592 157.655 29.8018C157.024 30.9001 156.395 32.0594 155.765 33.1579C151.734 33.768 147.577 34.256 143.356 34.5003L143.546 31.8154C143.671 30.778 143.735 29.6797 143.608 28.6423C143.483 27.7271 143.104 26.6287 142.033 26.3846C140.962 26.1404 140.144 26.9338 139.577 27.7271C139.01 28.6423 138.506 29.8018 138.128 30.839V30.9001C137.687 32.1815 137.184 33.4628 136.679 34.7443ZM86.5389 20.1605C86.6021 19.0622 86.7909 17.9029 87.0429 16.8654C87.4209 15.0959 88.5547 11.0076 90.9483 11.0076C93.7828 10.9466 96.5544 10.9466 99.3261 10.8856H99.389C104.302 10.8856 106.003 13.4484 104.05 17.7809L103.987 17.8417V17.9029C103.42 18.9403 102.665 19.9164 101.783 20.7708C99.137 23.3335 95.5465 23.9438 91.8933 23.8217C91.5151 23.7608 91.1372 23.7608 90.7593 23.7608C89.5625 23.7608 88.3655 23.6387 87.4209 22.8455C86.6648 22.1133 86.476 21.137 86.5389 20.1605ZM127.23 34.6832C127.42 34.073 127.672 33.4628 127.923 32.8527C129.499 28.4592 130.822 24.0049 132.081 19.5504C132.081 19.1233 132.081 18.147 131.703 17.9638C131.576 17.8417 131.325 17.9638 131.2 17.9638C130.569 18.208 129.939 18.6961 129.499 19.1233H129.436C128.428 20.0386 127.608 21.9912 127.105 23.2116C126.222 25.4083 125.593 27.666 124.9 29.9236C124.396 31.4492 123.955 33.0357 123.388 34.5611C124.648 34.6223 125.907 34.6832 127.23 34.6832ZM110.097 33.7071C110.223 33.5239 110.286 33.3409 110.349 33.1579C110.916 31.5713 111.609 30.0458 112.239 28.4592C112.743 27.2389 113.247 25.9575 113.688 24.676C114.191 23.0895 114.569 21.503 114.884 19.8555C114.948 19.3063 115.011 18.269 114.381 17.9029C114.003 17.6588 113.373 17.7809 112.932 17.9638C112.05 18.269 111.294 19.0622 110.727 19.8555C109.09 22.7234 107.767 25.8354 106.948 29.0085V29.1305L106.885 29.1914C106.255 30.7171 104.869 32.7917 102.853 32.3035C101.72 32.0594 101.027 31.1442 100.775 30.1068L100.712 30.0458V29.9847C100.46 28.6423 99.578 27.666 98.5071 26.8117L97.1214 25.7133L98.6331 24.7371C104.239 20.9539 107.893 16.6215 106.948 9.60414C106.003 5.75999 99.0111 5.75999 95.9246 5.88199H95.8615C91.0743 5.82099 86.224 5.75999 81.4367 5.63784C80.429 8.56682 79.4211 11.4348 78.4132 14.3027C76.7125 19.4284 75.0746 24.6151 73.6889 29.8018C76.3976 30.1068 79.232 30.4729 82.0037 30.778C82.3186 30.2289 82.6966 29.6797 83.0746 29.3135L83.4525 28.9473H84.0193C87.2948 29.0085 90.5703 29.0696 93.8459 29.1305H93.972C96.1765 29.3135 98.3811 30.1679 99.389 32.3035C99.452 32.4255 99.5149 32.6085 99.578 32.7917C103.105 33.1579 106.633 33.4628 110.097 33.7071ZM69.1536 29.3135C67.3899 29.1305 65.6892 28.9473 63.9886 28.7643C64.9333 27.422 65.3112 25.6523 64.5553 24.1879C64.1774 23.3946 63.5476 22.8455 62.7916 22.5404C59.2012 20.9539 56.4297 22.5404 54.036 25.1031L53.91 25.2862L53.847 25.3472C53.406 25.5302 52.2093 25.2862 51.7683 25.1642C51.3905 25.0422 50.1306 24.4929 50.0676 24.0049L50.1306 23.8829V23.7608C50.1937 22.5404 52.0832 21.137 53.0282 20.5267C55.1067 19.1842 57.7523 18.208 60.209 17.7197C62.9177 17.2316 66.0041 17.2316 68.5237 18.513C69.0277 18.7571 69.5317 19.1233 70.0355 19.4895C70.0986 19.6113 70.2245 19.7334 70.2876 19.8555C71.3584 21.5641 70.6655 24.4929 70.1615 26.2626C69.8466 27.2998 69.5317 28.2762 69.1536 29.3135ZM35.2649 27.666C35.5168 24.4929 36.5246 21.3811 38.4145 18.452C41.1228 13.9977 45.3432 10.5195 49.5637 7.40748C49.9415 7.04134 50.3195 6.18714 49.9415 5.69899C49.5637 5.14982 48.6188 5.45483 48.1779 5.63784C45.0283 7.22448 42.005 8.93298 39.1702 10.8856C35.6428 13.2043 32.4303 15.8892 29.4068 18.8183C28.6509 19.5504 27.706 20.2216 26.6982 20.5267C25.7533 20.8318 24.7456 20.7097 23.9897 20.0996C22.9817 19.3063 22.8557 17.9029 23.2338 16.7436V16.6215C24.2414 13.9366 25.0604 11.1906 25.6273 8.38381C25.7533 7.7735 25.8792 6.98032 25.6903 6.37016C25.6273 6.24801 25.5013 6.065 25.3754 6.004C25.1865 5.943 24.8715 6.065 24.6825 6.18714C24.1155 6.49217 23.6116 7.10247 23.2968 7.7125C19.5802 13.9366 16.6198 20.6488 14.0371 27.361C13.2812 29.4355 12.5254 31.5102 11.7695 33.585C17.9424 29.8627 26.0053 28.154 35.2649 27.666ZM179.388 26.2016C182.032 20.4046 184.3 14.4248 186.315 8.50582C186.567 7.89565 186.63 7.04132 186.064 6.55317C185.559 6.065 184.678 6.004 184.048 6.12601C183.292 6.24801 182.536 6.67518 182.157 7.40748V7.46849C181.213 9.05499 180.459 10.8246 179.765 12.5331C178.883 14.7299 178.127 16.9876 177.434 19.3063C176.552 22.2353 175.734 25.1642 174.914 28.0933C176.427 27.5441 177.938 26.8727 179.388 26.2016Z" fill="#2175C5"/>
<path fill-rule="evenodd" clip-rule="evenodd" d="M195.643 37.1851C199.36 40.9684 190.856 44.3246 188.022 45.7278C185.942 46.7043 180.336 49.6332 177.25 50.7926C176.369 51.0976 175.863 50.8535 175.863 49.9994C175.612 44.3856 190.856 42.1279 188.336 39.6259C187.455 38.3444 176.494 30.1679 183.863 30.3509C186.699 30.473 193.627 35.1105 195.643 37.1851ZM207.107 37.7343C205.219 35.7818 198.792 31.4493 196.21 31.3883C189.407 31.2051 199.55 38.7716 200.367 39.931C202.635 42.2497 188.588 44.3856 188.778 49.5722C188.839 50.3045 189.281 50.5485 190.1 50.2434C192.934 49.206 198.163 46.5213 200.052 45.545C202.698 44.3246 210.572 41.2125 207.107 37.7343Z" fill="#F15122"/>
<path fill-rule="evenodd" clip-rule="evenodd" d="M182.353 31.5711C182.353 31.8761 182.855 32.6083 183.045 32.7915C183.611 33.6456 184.432 34.439 185.124 35.1712C185.942 35.9644 186.762 36.6966 187.643 37.4899C188.085 37.8561 188.778 38.4662 189.156 39.0154C189.47 39.3205 189.659 39.7476 189.659 40.1748C189.659 40.2359 189.659 40.2359 189.659 40.2969C190.037 40.1748 190.353 40.1138 190.73 40.0528C192.368 39.6867 193.941 39.3816 195.518 39.1374C195.518 38.6494 195.202 38.2223 194.889 37.9171C193.124 36.0865 186.32 31.449 183.863 31.3879C183.611 31.3879 182.667 31.3879 182.353 31.5711Z" fill="#F47126"/>
<path fill-rule="evenodd" clip-rule="evenodd" d="M194.946 32.5477C195.01 33.2799 196.962 35.2934 197.467 35.7817C198.223 36.5138 198.978 37.185 199.734 37.9174C199.923 38.1004 200.176 38.2836 200.49 38.5275C202.507 38.4055 204.459 38.3444 206.284 38.3444C204.585 36.6969 198.475 32.4866 196.206 32.4256C195.954 32.3645 195.2 32.4256 194.946 32.5477Z" fill="#F47126"/>
</g>
<defs>
<clipPath id="clip0_56_14902">
<rect width="212" height="56" fill="white"/>
</clipPath>
</defs>
</svg>
