<svg width="29" height="28" viewBox="0 0 29 28" fill="none" xmlns="http://www.w3.org/2000/svg">
<path d="M14.9166 2C13.3298 2 11.7585 2.31254 10.2925 2.91979C8.82648 3.52703 7.49442 4.41709 6.37238 5.53913C4.10631 7.80519 2.83325 10.8786 2.83325 14.0833C2.83325 19.4242 6.30117 23.9554 11.0983 25.5625C11.7024 25.6592 11.8958 25.2846 11.8958 24.9583V22.9163C8.54867 23.6413 7.83575 21.2971 7.83575 21.2971C7.27992 19.8954 6.4945 19.5208 6.4945 19.5208C5.39492 18.7717 6.57908 18.7958 6.57908 18.7958C7.78742 18.8804 8.42784 20.0404 8.42784 20.0404C9.47908 21.8771 11.2553 21.3333 11.9441 21.0433C12.0528 20.2579 12.367 19.7263 12.7053 19.4242C10.0228 19.1221 7.20742 18.0829 7.20742 13.4792C7.20742 12.1379 7.66659 11.0625 8.452 10.2046C8.33117 9.9025 7.90825 8.64583 8.57283 7.01458C8.57283 7.01458 9.58783 6.68833 11.8958 8.24708C12.8503 7.98125 13.8895 7.84833 14.9166 7.84833C15.9437 7.84833 16.9828 7.98125 17.9374 8.24708C20.2453 6.68833 21.2603 7.01458 21.2603 7.01458C21.9249 8.64583 21.502 9.9025 21.3812 10.2046C22.1666 11.0625 22.6257 12.1379 22.6257 13.4792C22.6257 18.095 19.7983 19.11 17.1037 19.4121C17.5387 19.7867 17.9374 20.5238 17.9374 21.6475V24.9583C17.9374 25.2846 18.1308 25.6713 18.747 25.5625C23.5441 23.9433 26.9999 19.4242 26.9999 14.0833C26.9999 12.4965 26.6874 10.9253 26.0801 9.45924C25.4729 7.99322 24.5828 6.66117 23.4608 5.53913C22.3387 4.41709 21.0067 3.52703 19.5407 2.91979C18.0747 2.31254 16.5034 2 14.9166 2Z" fill="#FF031C"/>
</svg>
